<svg id="Layer_1" data-name="Layer 1" xmlns="http://www.w3.org/2000/svg" xmlns:xlink="http://www.w3.org/1999/xlink" viewBox="0 0 120 41.72"><defs><style>.cls-1{fill-rule:evenodd;fill:url(#linear-gradient);}</style><linearGradient id="linear-gradient" x1="109.7" y1="78.89" x2="109.7" y2="33.97" gradientTransform="matrix(1.09, 0.07, -0.07, 1, -55.22, -43.1)" gradientUnits="userSpaceOnUse"><stop offset="0" stop-color="#573253"/><stop offset="1" stop-color="#5a303e"/></linearGradient></defs><polygon class="cls-1" points="120 7.04 119.24 6.98 118.41 6.91 118 7.14 117.27 7.04 116.75 7.53 116.09 7.37 115.22 7.47 114.35 7.15 113.5 7.33 112.66 7.55 111.8 7.68 111.06 7.23 110.35 6.81 109.43 6.7 108.76 7.36 108.17 8.06 107.55 7.85 106.95 7.63 106.46 6.9 105.61 6.55 104.94 6.01 104.36 5.37 104 4.7 103.29 4.36 102.63 4.13 101.79 4 100.96 4.21 100.38 3.91 99.75 4.03 98.96 4.01 98.29 4.37 97.75 4.91 97.06 5.23 96.28 5.36 95.5 5.35 94.81 5.04 94.06 5.32 93.24 5.5 92.68 5.9 92.04 6.19 91.32 6.33 90.6 6.24 89.82 6.19 89.07 6.07 88.37 5.57 87.55 5.59 86.71 6.05 85.75 5.81 85.02 5.25 84.69 4.46 84.24 3.77 83.34 3.44 82.74 2.9 82.53 2.45 81.95 2.46 81.39 1.91 81.43 1.15 81.2 0.5 80.69 0.08 80.3 0.39 79.72 0.53 78.84 0.61 77.94 0.46 77.04 0.71 76.45 1.36 75.83 1.85 75.69 2.7 75.01 3.16 74.19 3.4 73.59 3.74 73.03 4.17 72.41 4.51 71.4 5.09 70.56 5.08 69.61 5.08 69.03 5.78 68.33 6.25 67.57 6.56 67.15 7.25 66.86 7.78 66.41 8.25 65.71 8.42 65.05 8.39 64.41 8.7 64.1 9.28 63.33 9.41 62.98 9.8 62.38 10.16 61.73 10.51 61.12 10.85 60.53 11.18 59.94 11.7 59.22 11.24 58.56 10.91 57.69 10.74 57.13 10.2 56.41 10.12 55.69 10.25 54.94 10.16 54.4 9.68 53.77 9.22 53.39 8.63 52.52 8.79 51.84 8.6 50.97 8.89 50.25 9.54 49.44 9.4 48.89 9.19 48.42 8.71 47.69 8.3 47.2 7.65 46.82 6.87 46.34 6.16 45.84 5.58 44.98 5.14 44.74 4.32 43.87 4.06 43.36 3.48 42.57 3.43 42.04 2.88 41.52 2.35 40.85 1.75 39.83 1.68 39.04 1.37 38.96 0.52 38.13 0.32 37.37 0.34 36.56 0.44 35.69 0.11 34.94 0 33.83 0.14 33.18 0.18 32.39 0.2 31.79 0.55 31 0.76 30.18 0.5 29.08 0.85 28.02 0.81 27.25 0.67 26.68 1.22 26.07 1.63 25.44 2.04 24.71 2.41 24.26 3.01 23.94 3.68 23.32 4.14 23.08 4.89 22.41 5.29 21.92 5.97 21.19 6.45 20.86 7.24 19.97 7.56 19.47 7.98 18.96 8.41 18.32 8.68 17.83 9.17 17.05 9.24 16.26 9.25 15.65 8.77 14.64 8.58 13.67 8.07 12.91 8.02 12.15 8.5 11.46 8.91 10.69 9.19 9.91 9.45 9.43 10.16 8.59 10.34 8.01 10.88 7.24 10.99 6.78 11.47 6.12 11.53 5.27 11.51 4.34 11.71 3.62 12.01 2.89 11.66 2.18 11.52 1.43 11.71 0.69 11.63 0 11.44 0 39.1 0.33 39.21 1.12 39.27 1.9 39.44 2.71 39.26 3.48 39.52 4.28 39.5 5.1 39.35 5.87 39.57 6.66 39.65 7.47 39.51 8.24 39.78 9.02 39.92 9.83 39.77 10.59 40.18 11.41 39.95 12.2 39.99 12.97 40.3 13.74 40.5 14.55 40.2 15.3 40.59 16.1 40.38 16.87 40.6 17.65 40.55 18.43 40.57 19.22 40.52 19.98 40.73 20.77 40.74 21.53 41 22.32 40.94 23.09 40.98 23.86 41.27 24.65 41.05 25.42 41.38 26.21 41.22 26.98 41.38 27.77 41.13 28.54 41.3 29.32 41.35 30.1 41.53 30.88 41.49 31.66 41.31 32.44 41.3 33.23 41.21 34 41.37 34.78 41.64 35.56 41.47 36.34 41.34 37.12 41.62 37.9 41.58 38.68 41.46 39.45 41.33 40.24 41.54 41.02 41.69 41.8 41.45 42.59 41.26 43.38 41.61 44.17 41.72 44.95 41.4 45.74 41.28 46.53 41.33 47.32 41.5 48.1 41.41 48.89 41.4 49.69 41.63 50.46 41.18 51.26 41.54 52.05 41.59 52.83 41.41 53.62 41.26 54.41 41.55 55.19 41.27 55.98 41.45 56.77 41.2 57.56 41.47 58.35 41.57 59.13 41.26 59.92 41.48 60.71 41.28 61.5 41.34 62.28 41.13 63.08 41.47 63.85 41.06 64.64 41.02 65.43 41.02 66.23 41.49 67.01 41.18 67.8 41.21 68.59 41.46 69.38 41.38 70.16 41.27 70.95 41.44 71.73 41.08 72.52 40.97 73.31 41.18 74.1 41.28 74.89 41.17 75.68 41.3 76.46 41.31 77.25 41.11 78.04 40.97 78.83 41.45 79.61 41.13 80.4 41.02 81.19 41.03 81.98 41.37 82.77 41.05 83.55 41.52 84.34 41.07 85.14 41.45 85.93 41.14 86.73 41.26 87.52 41.18 88.32 41.37 89.11 41.26 89.91 41.55 90.7 41.55 91.5 41.51 92.29 41.16 93.09 41.46 93.88 41.22 94.67 41.15 95.47 41.15 96.27 41.48 97.06 41.3 97.85 41.12 98.64 41.12 99.44 41.37 100.24 41.44 101.03 41.33 101.83 41.44 102.62 41.02 103.42 41.18 104.21 41.02 105 41.19 105.8 41.46 106.59 40.98 107.39 41.23 108.19 41.43 108.98 41.32 109.78 41.35 110.57 41.49 111.36 41.34 112.16 41.45 112.95 41.51 113.75 41.08 114.54 41.51 115.34 41.48 116.13 41.56 116.93 41.23 117.73 41.23 118.52 41.41 119.31 41.55 120 41.61 120 7.04"/></svg>