<svg id="Layer_1" data-name="Layer 1" xmlns="http://www.w3.org/2000/svg" xmlns:xlink="http://www.w3.org/1999/xlink" viewBox="0 0 120 29.8"><defs><style>.cls-1{fill-rule:evenodd;fill:url(#linear-gradient);}</style><linearGradient id="linear-gradient" x1="60" y1="16" x2="60" y2="2.04" gradientUnits="userSpaceOnUse"><stop offset="0" stop-color="#c67085"/><stop offset="1" stop-color="#ae4553"/></linearGradient></defs><polygon class="cls-1" points="120 1.77 119.87 1.8 119.13 1.52 118.39 1.32 117.55 1.45 116.73 1.47 115.99 1.29 115.26 0.97 114.44 0.97 113.61 1.04 112.88 1.39 112.03 1.26 111.23 1.32 110.58 1.68 109.64 1.42 108.91 1.62 108.16 1.85 107.34 1.51 106.53 1.82 105.73 1.82 105.07 1.39 104.2 1.61 103.43 1.32 102.64 1.51 101.96 1.75 101.32 1.96 100.32 1.94 99.86 2.39 98.99 2.5 98.44 2.87 97.76 3.17 96.81 3.18 95.96 2.96 95.11 3.06 94.19 3.08 93.4 2.9 92.95 2.4 92.27 2.13 91.38 2.05 90.68 1.79 89.79 1.68 89.13 1.38 88.44 1.06 87.51 1.1 86.64 0.99 85.67 1.05 85.12 1.48 84.49 1.79 83.71 2.02 82.92 2.24 82.29 2.52 81.63 2.81 80.78 2.85 79.81 2.93 79.21 2.52 78.61 2.21 77.69 2.11 77.15 1.75 76.25 1.72 75.62 1.26 74.72 1.4 74.11 1.76 73.2 1.84 73.19 2.36 72.43 2.61 72.02 2.97 71.8 3.38 71.76 3.84 70.69 4.03 70.86 4.57 70.42 4.94 69.5 5.07 68.91 5.32 68.18 5.45 67.38 5.78 66.65 5.43 65.78 5.46 65.32 4.98 64.59 4.83 63.86 4.66 62.89 4.7 62.5 4.24 61.61 4.18 61.05 3.87 60.49 3.56 59.87 3.29 58.96 3.25 58.19 3.1 57.75 2.68 57.01 2.51 56.33 2.28 55.44 2.3 54.82 1.95 53.98 1.93 53.28 1.67 52.5 1.54 51.73 1.37 50.89 1.38 50.02 1.56 49.25 1.35 48.4 1.54 47.65 1.21 46.81 1.35 46.03 1.14 45.2 1.3 44.38 1.43 43.59 1 42.77 1.24 41.97 0.97 41.15 1.3 40.34 1.31 39.54 0.99 38.72 1.29 37.92 0.98 37.1 1.17 36.28 1.28 35.5 0.99 34.69 0.95 33.83 1.28 33.03 1.2 32.21 1.17 31.39 1.13 30.73 0.8 30.16 0.45 29.17 0.66 28.5 0.45 27.84 0.18 27.03 0.24 26.2 0 25.38 0.25 24.56 0.33 23.82 0.56 22.99 0.62 22.15 0.68 21.27 0.67 20.58 1.02 19.61 0.72 18.85 1.09 18.05 0.91 17.29 0.77 16.36 1.01 15.75 0.56 14.92 0.56 14.08 0.58 13.39 0.27 12.57 0.29 11.77 0.51 10.94 0.38 10.1 0.36 9.24 0.32 8.53 0.73 7.66 0.66 6.89 0.88 6.02 0.82 5.14 0.71 4.36 0.94 3.54 1.06 2.69 0.82 1.85 0.93 1.05 0.78 0.28 0.58 0 0.64 0 28.01 0.53 27.82 1.26 28.19 2.04 28.39 2.94 28.09 3.71 28.34 4.58 28.19 5.34 28.49 6.16 28.57 6.99 28.55 7.79 28.7 8.64 28.54 9.43 28.79 10.28 28.66 11.08 28.82 11.95 28.52 12.75 28.71 13.59 28.62 14.39 28.76 15.22 28.76 16.06 28.61 16.86 28.85 17.67 28.94 18.48 29.08 19.32 29.02 20.13 29.13 20.98 28.81 21.8 28.93 22.61 29.03 23.46 28.79 24.25 29.16 25.07 29.2 25.92 28.91 26.75 28.9 27.55 29.08 28.35 29.3 29.21 28.97 30.02 29.18 30.85 29.03 31.66 29.07 32.48 29.17 33.31 29 34.13 29.01 34.91 29.46 35.74 29.39 36.57 29.28 37.39 29.23 38.22 29.11 39.02 29.29 39.83 29.57 40.66 29.4 41.48 29.36 42.29 29.48 43.11 29.46 43.95 29.2 44.76 29.35 45.56 29.64 46.39 29.45 47.2 29.65 48.03 29.43 48.84 29.58 49.66 29.68 50.49 29.48 51.3 29.65 52.13 29.38 52.94 29.66 53.76 29.57 54.58 29.42 55.41 29.32 56.22 29.63 57.04 29.35 57.86 29.58 58.67 29.61 59.49 29.77 60.32 29.49 61.14 29.41 61.95 29.62 62.77 29.71 63.59 29.75 64.41 29.65 65.23 29.51 66.05 29.71 66.87 29.37 67.69 29.8 68.51 29.61 69.33 29.43 70.14 29.64 70.96 29.48 71.78 29.66 72.6 29.44 73.42 29.5 74.24 29.58 75.06 29.7 75.88 29.4 76.7 29.53 77.52 29.65 78.34 29.68 79.16 29.54 79.98 29.77 80.8 29.76 81.61 29.51 82.43 29.42 83.25 29.37 84.07 29.43 84.89 29.34 85.71 29.6 86.53 29.48 87.35 29.39 88.17 29.68 88.99 29.66 89.8 29.35 90.63 29.76 91.45 29.57 92.26 29.33 93.08 29.58 93.9 29.58 94.72 29.44 95.54 29.3 96.36 29.33 97.18 29.68 98 29.45 98.82 29.51 99.64 29.33 100.46 29.64 101.28 29.47 102.1 29.71 102.91 29.29 103.73 29.36 104.55 29.32 105.37 29.36 106.19 29.59 107.01 29.31 107.83 29.6 108.65 29.46 109.47 29.35 110.29 29.58 111.11 29.64 111.93 29.54 112.75 29.57 113.56 29.32 114.39 29.45 115.2 29.52 116.02 29.39 116.84 29.61 117.66 29.57 118.48 29.66 119.3 29.28 120 29.41 120 1.77"/></svg>