<svg id="Layer_1" data-name="Layer 1" xmlns="http://www.w3.org/2000/svg" viewBox="0 0 120 41.03"><polygon points="120 41.03 120 3.72 119.74 3.73 119.03 4.03 118.29 4.06 117.56 4.13 116.84 4.28 116.16 4.57 115.47 4.74 114.9 5.17 114.35 5.61 113.71 5.92 113.23 6.45 112.61 6.79 111.92 7.04 111.28 7.42 110.58 7.71 109.84 7.65 109.09 7.54 108.29 7.69 107.74 8.35 107.04 8.72 106.25 8.91 105.5 9.16 104.88 9.23 104.28 9.31 103.64 9.11 103.1 9.47 102.52 9.64 101.76 9.93 100.91 9.73 100.2 10.26 99.47 10.47 98.79 10.78 98.09 11.13 97.25 11.04 96.44 11.37 95.56 11.02 94.95 11.42 94.42 11.86 93.93 12.32 93.33 12.62 92.69 12.8 91.99 12.88 91.32 12.49 90.58 12.5 90.06 12.66 89.49 12.56 88.76 12.53 88.04 12.34 87.29 12.24 86.63 11.73 85.9 11.81 85.23 12.09 84.6 12.41 83.81 12.21 83.29 12.87 82.53 12.81 81.9 13.15 81.18 13.14 80.49 13.05 79.86 13.41 79.24 13.31 78.44 13.55 77.65 13.89 76.94 14.09 76.2 14.12 75.5 13.84 74.71 14.02 73.92 13.97 73.21 13.54 72.42 13.65 71.96 14.1 71.34 13.9 70.77 13.56 69.98 13.38 69.62 12.67 68.98 12.39 68.31 12.21 67.64 12 67.04 11.62 66.58 11.11 66.03 10.72 65.56 10.24 65.27 9.53 64.59 9.32 63.93 9.16 63.21 9.08 62.66 8.61 62.12 8.17 61.53 7.82 60.84 7.6 60.38 7.05 59.7 6.82 59.12 6.44 58.53 6.06 57.81 6.06 57.2 5.7 56.78 5.08 56.01 4.96 55.45 4.54 54.76 4.19 53.94 4.27 53.25 3.89 52.55 3.54 52.15 4.27 51.5 4.53 50.89 4.81 50.25 5 49.68 4.69 49.01 4.53 48.45 4.19 47.95 3.77 47.28 3.33 46.54 3.18 45.68 3.4 45 3.18 44.39 2.75 43.78 2.33 43.05 2.21 42.54 1.73 41.81 1.75 41.2 1.55 40.55 1.55 39.84 1.42 39.22 1.73 38.55 1.79 37.92 1.54 37.31 1.36 36.71 1.05 36.11 0.67 35.7 0 34.98 0.25 34.3 0.36 33.67 0.76 32.91 0.74 32.32 1.33 31.52 1.03 30.87 1.55 30.13 1.5 29.4 1.44 28.7 1.19 28 1.23 27.37 1.54 26.73 1.76 26.33 2.4 25.62 2.5 24.97 2.62 24.35 3.02 23.65 3.25 22.93 3.29 22.21 3.4 21.45 3.36 20.72 3.21 19.98 3.19 19.25 2.81 18.57 2.83 17.9 3.12 17.22 2.79 16.54 2.99 15.82 3 15.14 2.69 14.41 2.58 13.67 2.48 12.93 2.5 12.18 2.52 11.43 2.45 10.68 2.58 9.94 2.24 9.24 2.17 8.54 2.19 7.88 2.38 7.21 2.63 6.54 2.38 5.86 2.34 5.16 2.31 4.57 1.78 3.81 1.79 3.11 1.52 2.4 1.22 1.89 0.58 1.21 0.2 0.41 0.17 0 0.21 0 41.03 120 41.03" style="fill:#180c1a;fill-rule:evenodd"/></svg>