<svg id="Layer_1" data-name="Layer 1" xmlns="http://www.w3.org/2000/svg" viewBox="0 0 120 43.08"><defs><style>.cls-1{fill:#180c1a;fill-rule:evenodd;}</style></defs><polygon class="cls-1" points="120 43.08 120 5.77 119.74 5.78 119.03 6.08 118.29 6.12 117.56 6.19 116.84 6.33 116.16 6.63 115.47 6.8 114.9 7.23 114.35 7.67 113.71 7.98 113.23 8.5 112.61 8.84 111.92 9.1 111.28 9.47 110.58 9.76 109.84 9.71 109.09 9.59 108.29 9.75 107.74 10.41 107.04 10.78 106.25 10.96 105.5 11.21 104.88 11.28 104.28 11.36 103.64 11.17 103.1 11.52 102.52 11.69 101.76 11.98 100.91 11.79 100.2 12.31 99.47 12.52 98.79 12.83 98.09 13.19 97.25 13.09 96.44 13.43 95.56 13.07 94.95 13.48 94.42 13.91 93.93 14.37 93.33 14.68 92.69 14.86 91.99 14.93 91.32 14.54 90.58 14.55 90.06 14.72 89.49 14.62 88.76 14.58 88.04 14.39 87.29 14.3 86.63 13.79 85.9 13.87 85.23 14.15 84.6 14.47 83.81 14.26 83.29 14.92 82.53 14.87 81.9 15.21 81.18 15.2 80.49 15.11 79.86 15.46 79.24 15.37 78.44 15.6 77.65 15.94 76.94 16.14 76.2 16.17 75.5 15.89 74.71 16.08 73.92 16.02 73.21 15.6 72.42 15.71 71.96 16.16 71.34 15.95 70.77 15.62 69.98 15.44 69.62 14.72 68.98 14.45 68.31 14.27 67.64 14.05 67.04 13.67 66.58 13.17 66.03 12.77 65.56 12.3 65.27 11.58 64.59 11.37 63.93 11.21 63.21 11.14 62.66 10.67 62.12 10.22 61.53 9.87 60.84 9.65 60.38 9.1 59.7 8.88 59.12 8.5 58.53 8.12 57.81 8.12 57.2 7.76 56.78 7.13 56.01 7.01 55.45 6.59 54.76 6.25 53.94 6.32 53.25 5.94 52.55 5.6 52.15 6.33 51.5 6.59 50.89 6.86 50.25 7.06 49.68 6.74 49.01 6.59 48.45 6.25 47.95 5.82 47.28 5.39 46.54 5.23 45.68 5.46 45 5.23 44.39 4.81 43.78 4.38 43.05 4.26 42.54 3.78 41.81 3.81 41.2 3.6 40.55 3.6 39.84 3.48 39.22 3.79 38.55 3.84 37.92 3.59 37.31 3.42 36.71 3.11 36.11 2.72 35.7 2.05 34.98 2.3 34.3 2.41 33.67 2.82 32.91 2.79 32.32 3.38 31.52 3.08 30.87 3.6 30.13 3.55 29.4 3.49 28.7 3.24 28 3.29 27.37 3.6 26.73 3.82 26.33 4.45 25.62 4.56 24.97 4.67 24.35 5.07 23.65 5.31 22.93 5.34 22.21 5.46 21.45 5.42 20.72 5.27 19.98 5.25 19.25 4.86 18.57 4.89 17.9 5.17 17.22 4.85 16.54 5.05 15.82 5.05 15.14 4.75 14.41 4.63 13.67 4.54 12.93 4.56 12.18 4.58 11.43 4.5 10.68 4.63 9.94 4.29 9.24 4.23 8.54 4.25 7.88 4.44 7.21 4.69 6.54 4.43 5.86 4.4 5.16 4.36 4.57 3.83 3.81 3.85 3.11 3.57 2.4 3.27 1.89 2.63 1.21 2.25 0.41 2.22 0 2.27 0 43.08 120 43.08"/><path class="cls-1" d="M52.69,42.62s0,0,0,0l0,0h.05a.18.18,0,0,1,.1,0l.09,0h0l.08,0,.18,0,.09,0h.07l0,0h.07l.09,0a.45.45,0,0,1,.1-.14l0-.06s0,0-.05,0,0,0,0,0,0,0,0-.06v0a.1.1,0,0,1,0-.05.71.71,0,0,1,0-.26l.05-.07s0,0,0-.06h0a.17.17,0,0,1,.12,0,.21.21,0,0,1,.12,0h0s0,0,0,0l0,0a.28.28,0,0,1,.06.09.45.45,0,0,1,0,.24h0s0,.09,0,.13h0s0,0,0,.07a.27.27,0,0,1,.08.07s0,0,0,0h.06l0,0h.15l0,0,.13,0h.14a.53.53,0,0,0,.17-.08l.09,0a.2.2,0,0,1,.14,0s0-.06,0-.08.07,0,.12,0,.05,0,.07-.06l0,0h0l.07,0h.06l0,0h0l.14-.05s0,0,0,0l.1,0,.1,0,0,0h0l0,0,.1-.05,0,0h0l0,0s0,0,0,0,0,0,0,0v0h0s0,0,0,0h0l.05,0,.06,0a.17.17,0,0,1,.12,0,0,0,0,0,1,0,.06l-.08,0s0,0,0,0l0,0h.09l0,0,0,0,0,0A.1.1,0,0,1,57,42h0l0,0,0,0s0,0,0,0a.17.17,0,0,1,.1,0s.08-.08.12,0,0,0,0,0l0,0s0,0,0,0l0,0a.2.2,0,0,0-.08,0l-.06,0-.06,0-.18.07-.16.09-.07,0,0,0a.52.52,0,0,0-.13.06h-.09l0,0h0l0,0,0,0-.07,0s0,0,0,0a.53.53,0,0,1-.1.06.28.28,0,0,1-.12,0,.24.24,0,0,1,0,.09s0,0,0,0h-.14s0,0-.06.07-.06,0-.09,0l0,0a.08.08,0,0,1,0,0l-.09,0a.35.35,0,0,0-.09.07l-.09.07,0,0,0,0H55l0,0s-.06,0-.08,0h0v0h0s0,0,0,0h0a.07.07,0,0,1,0,0s0,0,0,.07a2.42,2.42,0,0,1,0,.27.34.34,0,0,1,0,.1.45.45,0,0,1,0,.11s0,.09,0,.14v0a2.83,2.83,0,0,1,0,.3v.12c0,.12,0,.23,0,.34l.06.19a1.42,1.42,0,0,1,.08.18.34.34,0,0,1-.08.09c0,.11.07.22.1.34s.07.26.11.39l0,.08s0,0,0,.05l.06.22,0,.12a.64.64,0,0,0,0,.07.52.52,0,0,1,0,.11s0,.05,0,.08a.25.25,0,0,0,0,.07.85.85,0,0,1,0,.17l0,.11a.14.14,0,0,1,0,.06,791588515752.56,791588515752.56,0,0,1,0,.14v.08a.24.24,0,0,1,0,.08s0,.07,0,.1,0,.12,0,.19V48l0,.1v0s0,.07,0,.1a.09.09,0,0,0,0,.05v0h0a.34.34,0,0,0,.05.14c0,.06,0,.12,0,.16l0,.06,0,.1h0s0,0,0,0l0,0a.09.09,0,0,1,.06,0s0,0,0,0,0,0,0,.06l-.06,0H55.6s-.06,0-.08,0h-.15l0,0h0l-.06,0,0,0s0,0,0-.05l-.1,0s0,0,0,0,0-.06,0-.09,0,0,0-.08a.14.14,0,0,0,0-.06s0-.09,0-.14-.05-.21-.07-.32,0-.22-.06-.33a.43.43,0,0,0,0-.11.48.48,0,0,0,0-.12.76.76,0,0,0,0-.16s0-.11-.05-.15a1.52,1.52,0,0,0,0-.21.65.65,0,0,0,0-.13s0,0,0,0,0-.06,0-.08,0,0,0-.07l-.06-.1-.05-.1v0a1.17,1.17,0,0,1-.05-.11.14.14,0,0,0,0-.06s0,0,0,0-.12-.3-.18-.46a.76.76,0,0,1-.09-.18H54s0,0,0,0a.64.64,0,0,1-.08.14l-.12.38a0,0,0,0,1,0,0l-.06.15a.75.75,0,0,1-.05.16,1,1,0,0,1-.09.18l0,.2a.5.5,0,0,0-.05.13.44.44,0,0,1,0,.1v.1a.25.25,0,0,0,0,.07l0,.08a0,0,0,0,1,0,0,1.17,1.17,0,0,0-.05.11v.14a.29.29,0,0,0,0,.09.19.19,0,0,0,0,.07c0,.08,0,.18,0,.27v0s0,0,0,0a.6.6,0,0,0-.06.19s0,0,0,0,0,.1,0,.15v0l0,0s0,0,0,.06,0,0,0,.08,0,0,0,0,0,0,0,0,0,0,0,0,0,0-.05,0,0,0,0,.05-.05,0-.07.06l-.11,0s0,0-.08,0,0,0,0,0h-.15l-.09,0s0-.05,0-.07h0v0s0,0,.06-.05,0,0,0,0a.34.34,0,0,1,0-.14.41.41,0,0,1,0-.16,1.07,1.07,0,0,0,.08-.27l0-.14a.74.74,0,0,0,0-.14s0-.07,0-.1,0-.06,0-.08a1.42,1.42,0,0,1,0-.2s0,0,0,0v-.08a.83.83,0,0,1,0-.15.75.75,0,0,0,0-.16.25.25,0,0,0,0-.08.9.9,0,0,0,0-.16s0-.06,0-.09a.29.29,0,0,1,0-.09.09.09,0,0,0,0-.05s0-.13.06-.19a1.94,1.94,0,0,1,0-.2.29.29,0,0,1,0-.09l.13-.42a2.75,2.75,0,0,1,.1-.34l-.08-.08a3.21,3.21,0,0,0,.12-.33,1.55,1.55,0,0,0,0-.23.76.76,0,0,0,0-.15s0-.11,0-.17,0-.12,0-.17a.5.5,0,0,0,0-.13.64.64,0,0,1,0-.07c0-.06,0-.11,0-.16l0-.15v-.09l0,0,0,0,0-.05,0,0h0l-.06-.1a.32.32,0,0,0-.09,0l-.15-.07a.65.65,0,0,0-.15-.1l-.11,0a.59.59,0,0,1,0-.08h-.11a.26.26,0,0,1,0-.09s0,0,0,0h-.1l0,0s0,0,0,0h0l0,0s0,0,0,0l-.1,0a.33.33,0,0,1-.1-.06v0l0,0,0,0h0l0,0h0l0,0h0a0,0,0,0,1,0,0h0l-.06,0-.07,0a.31.31,0,0,1-.11-.09l-.1,0h0l-.17,0-.05,0h-.06l0,0-.12-.06s0,0,0,0v0h0l0,0s0,0,0,0,0,0,0,0a.06.06,0,0,1,.07,0s0,0,.06,0l.14,0s0,0,0,0l0,0L51,42,51,42s.1,0,.14,0l.08,0,.06,0s.05,0,.08,0l0,0s-.05,0-.07,0h0l0,0v0a.48.48,0,0,1,.12,0l.07,0,.05,0,0,0h0l0,0s0,.05,0,.07,0,0,.05.06,0,0,.08.07l0,0,.11,0,.22.1a0,0,0,0,0,0,0h0l.07,0,.13.06,0,0h.06a.27.27,0,0,1,.16.11.24.24,0,0,0,.09,0Z" transform="translate(0 -41.92)"/></svg>