<svg id="Layer_1" data-name="Layer 1" xmlns="http://www.w3.org/2000/svg" xmlns:xlink="http://www.w3.org/1999/xlink" viewBox="0 0 120 35.46"><defs><style>.cls-1{fill-rule:evenodd;fill:url(#linear-gradient);}</style><linearGradient id="linear-gradient" x1="60" y1="16.89" x2="60" y2="3.35" gradientUnits="userSpaceOnUse"><stop offset="0" stop-color="#e97980"/><stop offset="1" stop-color="#d95153"/></linearGradient></defs><polygon class="cls-1" points="120 0 119.75 0.54 119.06 1.1 119.22 1.96 118.83 2.63 118.19 3.19 117.8 3.87 116.7 4.12 116.2 4.71 115.7 5.15 115.11 5.55 114.38 5.46 113.57 5.26 112.51 5.21 112.09 4.48 111.34 4.04 110.81 3.45 110.48 2.69 109.65 2.29 108.59 2.43 107.75 2.51 106.87 2.83 105.89 2.94 105.46 3.74 104.28 3.7 103.61 4.23 103.57 5.22 102.54 5.56 102.3 6.43 101.12 6.57 100.59 7.42 99.44 7.47 98.54 6.92 97.34 7.02 96.61 6.54 96 5.96 95.15 5.72 94.34 5.8 93.35 5.58 92.63 5.99 92.05 6.52 91.14 6.72 90.61 7.29 89.85 7.67 89.41 8.21 89.47 9.08 88.63 9.41 87.66 9.49 86.82 9.11 85.98 8.88 85.01 8.8 84.4 8.21 83.38 8.24 82.74 7.7 81.84 7.55 81.16 7.06 80.27 6.9 79.69 6.24 78.67 6.29 77.92 5.92 77.25 5.4 76.43 5.08 75.52 4.88 74.86 4.33 73.86 4.23 73.27 3.61 72.26 3.55 71.71 2.69 70.54 3.04 69.69 2.69 68.77 2.54 67.96 2.97 67.04 2.99 66.26 3.36 65.32 3.43 64.48 3.68 63.79 4.19 63.1 4.71 62.25 4.96 61.37 5.05 60.49 5.1 59.78 5.62 58.85 5.37 58 5.71 57.21 5.29 56.45 5.04 55.58 4.88 54.76 4.56 53.78 4.7 52.93 4.42 52.1 4.58 51.22 4.71 50.76 5.4 49.98 5.69 49.1 5.89 48.45 6.32 47.58 6.36 46.58 6.4 45.93 5.73 44.87 5.8 44.05 5.62 43.16 5.5 42.26 5.44 41.45 5.1 40.68 4.84 39.79 4.62 39.59 3.82 38.89 3.39 38.01 3.17 37.24 3.19 36.4 3.18 35.38 3.17 35.01 4.1 33.73 3.9 33.17 4.74 32.17 4.97 31.18 5.22 30.26 5.35 29.38 4.88 28.52 4.71 27.63 4.64 26.62 4.82 25.68 4.73 24.95 4.21 23.95 4.24 23.36 3.46 22.49 3.23 21.69 2.85 20.57 3.22 19.76 2.87 18.92 2.53 17.97 2.79 17.09 2.16 16.22 2.81 15.3 2.48 14.44 2.77 13.57 2.92 12.64 2.86 11.87 3.31 10.91 3.25 10.04 3.42 9.14 3.53 8.42 4.05 7.53 4.2 6.79 4.67 5.9 4.81 5.04 5.01 4.2 5.29 3.31 5.42 2.35 5.4 1.57 5.8 0.63 5.8 0 6.26 0 30.64 0.44 30.57 1.31 30.94 2.22 31.01 3.13 31.08 4.01 31.34 4.94 31.32 5.86 31.38 6.74 31.71 7.73 31.34 8.65 31.36 9.56 31.48 10.51 31.78 11.47 31.88 12.39 32.25 13.42 32.03 14.43 31.97 15.39 32.1 16.34 32.32 17.32 32.35 18.14 32.77 19.07 32.66 19.87 33.28 20.86 32.79 21.7 33.24 22.63 33.09 23.46 33.66 24.37 33.66 25.33 33.21 26.19 33.61 27.13 33.29 27.99 33.67 28.87 33.86 29.8 33.68 30.7 33.78 31.54 34.16 32.53 34.03 33.49 34.07 34.43 34.35 35.41 34.16 36.38 34.1 37.31 34.49 38.3 34.18 39.24 34.43 40.18 34.69 41.11 34.5 42.01 34.56 42.86 34.98 43.78 34.9 44.7 34.85 45.57 35.15 46.48 35.23 47.38 35.29 48.3 35.2 49.2 35.33 50.12 35.41 51.04 35.28 51.96 34.91 52.88 34.92 53.8 34.92 54.72 34.97 55.64 34.96 56.56 35.02 57.48 35.43 58.4 35.35 59.33 35.46 60.25 34.88 61.17 35.11 62.09 35.41 63.01 35.31 63.93 35.15 64.85 35.2 65.77 34.86 66.69 35.29 67.61 35.19 68.54 35.2 69.46 35.06 70.37 34.81 71.3 35.22 72.23 35.36 73.14 34.85 74.06 35.02 74.99 35.35 75.91 35.27 76.81 34.71 77.73 34.77 78.64 34.94 79.56 35.14 80.45 34.66 81.37 34.99 82.28 35 83.19 34.92 84.09 34.8 84.99 34.66 85.93 35.09 86.83 34.96 87.73 34.77 88.65 34.9 89.52 34.3 90.46 34.84 91.36 34.54 92.28 34.74 93.17 34.49 94.06 34.09 94.98 34.27 95.89 34.3 96.82 34.56 97.7 34.17 98.61 34.21 99.54 34.4 100.45 34.48 101.34 34.16 102.23 33.77 103.14 33.83 104.05 33.78 104.95 33.68 105.86 33.7 106.8 34.17 107.71 33.88 108.65 34.15 109.56 33.85 110.48 33.8 111.42 33.94 112.35 34.05 113.25 33.65 114.18 33.65 115.11 33.8 116.02 33.44 116.97 33.87 117.88 33.49 118.79 33.16 119.73 33.54 120 33.51 120 0"/></svg>